<?xml version="1.0" encoding="UTF-8" standalone="no"?>
<!DOCTYPE svg PUBLIC "-//W3C//DTD SVG 1.1//EN" "http://www.w3.org/Graphics/SVG/1.1/DTD/svg11.dtd">
<!-- Created with Vectornator (http://vectornator.io/) -->
<svg height="100%" stroke-miterlimit="10" style="fill-rule:nonzero;clip-rule:evenodd;stroke-linecap:round;stroke-linejoin:round;" version="1.1" viewBox="0 0 512 512" width="100%" xml:space="preserve" xmlns="http://www.w3.org/2000/svg" xmlns:vectornator="http://vectornator.io" xmlns:xlink="http://www.w3.org/1999/xlink">
<defs/>
<g id="Layer-1" vectornator:layerName="Layer 1">
<path d="M13.4917 203.028C13.4917 97.1756 104.503 11.3649 216.771 11.3649C329.039 11.3649 502.066 96.1439 502.066 201.997C502.066 307.85 329.039 394.692 216.771 394.692C104.503 394.692 13.4917 308.881 13.4917 203.028Z" fill="#000000" fill-rule="nonzero" opacity="0.400024" stroke="#000000" stroke-linecap="butt" stroke-linejoin="miter" stroke-width="2.03195" vectornator:layerName="(oval)"/>
<path d="M7.19294 203.067C7.19294 94.5259 100.42 6.53593 215.422 6.53593C330.424 6.53593 507.664 93.468 507.664 202.009C507.664 310.55 330.424 399.598 215.422 399.598C100.42 399.598 7.19294 311.608 7.19294 203.067Z" fill="#000000" fill-opacity="0.311776" fill-rule="nonzero" opacity="0.400024" stroke="#000000" stroke-linecap="butt" stroke-linejoin="miter" stroke-width="2.03195" vectornator:layerName="(oval)"/>
<g fill="#000000" opacity="0.400024" stroke="none">
<path d="M169.246 120.65C175.355 123.226 180.544 127.016 184.812 132.021C188.345 136.142 191.142 140.705 193.203 145.71C195.263 150.715 196.294 156.419 196.294 162.822C196.294 170.55 194.343 178.149 190.443 185.619C186.542 193.089 180.102 198.37 171.123 201.461C178.63 204.479 183.948 208.766 187.075 214.323C190.203 219.879 191.767 228.362 191.767 239.77L191.767 250.699C191.767 258.132 192.062 263.174 192.651 265.823C193.534 270.019 195.595 273.11 198.833 275.097L198.833 279.182L161.408 279.182C160.378 275.575 159.642 272.668 159.2 270.46C158.317 265.897 157.838 261.224 157.765 256.44L157.544 241.315C157.397 230.938 155.502 224.019 151.858 220.56C148.215 217.101 141.389 215.372 131.38 215.372L96.2729 215.372L96.2729 279.182L63.0431 279.182L63.0431 116.455L142.861 116.455C154.269 116.675 163.064 118.074 169.246 120.65ZM162.181 167.459C162.181 157.596 158.906 150.973 152.355 147.587C148.675 145.673 143.155 144.717 135.795 144.717L96.2729 144.717L96.2729 188.434L134.802 188.434C142.456 188.434 148.197 187.551 152.024 185.785C158.795 182.694 162.181 176.585 162.181 167.459Z" fill="#000000"/>
<path d="M259.331 145.269L259.331 182.694L330.759 182.694L330.759 210.956L259.331 210.956L259.331 279.182L225.549 279.182L225.549 116.675L340.915 116.675L340.915 145.269L259.331 145.269Z" fill="#000000"/>
</g>
<g fill="#000000" opacity="0.400024" stroke="none">
<path d="M175.406 127.777C181.513 130.352 186.7 134.141 190.967 139.144C194.499 143.265 197.295 147.826 199.355 152.829C201.415 157.833 202.445 163.535 202.445 169.936C202.445 177.661 200.495 185.258 196.596 192.726C192.696 200.194 186.258 205.473 177.282 208.563C184.787 211.58 190.103 215.866 193.23 221.42C196.357 226.975 197.92 235.455 197.92 246.859L197.92 257.785C197.92 265.216 198.214 270.256 198.803 272.905C199.686 277.099 201.746 280.189 204.983 282.176L204.983 286.259L167.57 286.259C166.54 282.654 165.804 279.748 165.363 277.54C164.48 272.979 164.002 268.307 163.928 263.524L163.707 248.404C163.56 238.03 161.666 231.114 158.024 227.656C154.382 224.198 147.557 222.469 137.551 222.469L102.456 222.469L102.456 286.259L69.236 286.259L69.236 123.583L149.029 123.583C160.433 123.804 169.226 125.202 175.406 127.777ZM168.343 174.571C168.343 164.712 165.069 158.09 158.52 154.706C154.841 152.793 149.323 151.836 141.966 151.836L102.456 151.836L102.456 195.54L140.972 195.54C148.624 195.54 154.363 194.657 158.189 192.891C164.958 189.801 168.343 183.694 168.343 174.571Z" fill="#000000"/>
<path d="M265.463 152.388L265.463 189.801L336.868 189.801L336.868 218.054L265.463 218.054L265.463 286.259L231.691 286.259L231.691 123.804L347.021 123.804L347.021 152.388L265.463 152.388Z" fill="#000000"/>
</g>
<g fill="#000000" opacity="0.400024" stroke="none">
<path d="M280.446 255.061L280.446 281.62L296.482 281.62L296.482 287.442L273.68 287.442L273.68 255.061L280.446 255.061Z"/>
<path d="M302.436 274.678C303.68 273.961 305.511 273.448 307.928 273.141L310.058 272.877C311.215 272.731 312.043 272.548 312.541 272.328C313.434 271.947 313.881 271.354 313.881 270.549C313.881 269.567 313.54 268.89 312.859 268.516C312.178 268.143 311.179 267.956 309.861 267.956C308.382 267.956 307.334 268.322 306.719 269.055C306.28 269.597 305.987 270.329 305.841 271.251L299.799 271.251C299.931 269.157 300.517 267.436 301.557 266.089C303.212 263.98 306.053 262.926 310.08 262.926C312.702 262.926 315.03 263.446 317.066 264.485C319.102 265.525 320.12 267.488 320.12 270.373L320.12 281.357C320.12 282.118 320.134 283.041 320.164 284.125C320.208 284.945 320.332 285.501 320.537 285.794C320.742 286.087 321.05 286.329 321.46 286.519L321.46 287.442L314.65 287.442C314.459 286.958 314.327 286.504 314.254 286.08C314.181 285.655 314.122 285.172 314.079 284.63C313.214 285.567 312.219 286.365 311.091 287.024C309.744 287.801 308.22 288.189 306.522 288.189C304.354 288.189 302.564 287.57 301.15 286.332C299.737 285.095 299.031 283.341 299.031 281.071C299.031 278.127 300.166 275.997 302.436 274.678ZM312.101 282.455C313.229 281.664 313.815 280.222 313.859 278.127L313.859 275.799C313.463 276.048 313.064 276.249 312.662 276.403C312.259 276.557 311.706 276.7 311.003 276.831L309.597 277.095C308.279 277.329 307.334 277.615 306.763 277.952C305.797 278.523 305.313 279.409 305.313 280.61C305.313 281.679 305.61 282.451 306.203 282.927C306.796 283.403 307.517 283.641 308.367 283.641C309.714 283.641 310.959 283.246 312.101 282.455Z"/>
<path d="M345.031 264.859C346.598 266.162 347.382 268.315 347.382 271.317L347.382 287.442L340.967 287.442L340.967 272.877C340.967 271.618 340.799 270.651 340.462 269.977C339.847 268.747 338.675 268.132 336.947 268.132C334.823 268.132 333.366 269.033 332.575 270.834C332.165 271.786 331.96 273.002 331.96 274.481L331.96 287.442L325.721 287.442L325.721 263.541L331.763 263.541L331.763 267.034C332.568 265.803 333.33 264.917 334.047 264.376C335.336 263.409 336.969 262.926 338.946 262.926C341.421 262.926 343.45 263.57 345.031 264.859Z"/>
<path d="M359.925 291.638C360.599 292.209 361.734 292.494 363.33 292.494C365.586 292.494 367.094 291.74 367.856 290.232C368.354 289.265 368.603 287.639 368.603 285.355L368.603 283.817C368.002 284.842 367.358 285.611 366.67 286.124C365.425 287.076 363.806 287.552 361.815 287.552C358.739 287.552 356.282 286.472 354.444 284.311C352.606 282.151 351.687 279.226 351.687 275.535C351.687 271.976 352.573 268.985 354.346 266.561C356.118 264.138 358.629 262.926 361.881 262.926C363.081 262.926 364.129 263.109 365.022 263.475C366.545 264.105 367.775 265.262 368.713 266.946L368.713 263.497L374.798 263.497L374.798 286.212C374.798 289.302 374.278 291.63 373.238 293.197C371.451 295.892 368.024 297.239 362.957 297.239C359.896 297.239 357.399 296.639 355.466 295.438C353.533 294.237 352.464 292.443 352.259 290.056L359.069 290.056C359.244 290.788 359.53 291.315 359.925 291.638ZM363.374 268.396C361.178 268.396 359.662 269.428 358.827 271.493C358.388 272.592 358.168 273.946 358.168 275.557C358.168 276.948 358.402 278.186 358.871 279.27C359.72 281.291 361.243 282.301 363.44 282.301C364.905 282.301 366.142 281.748 367.153 280.643C368.163 279.537 368.669 277.776 368.669 275.359C368.669 273.089 368.189 271.361 367.23 270.175C366.27 268.989 364.985 268.396 363.374 268.396Z"/>
</g>
</g>
</svg>
